<?xml version="1.0" encoding="utf-8"?>
<!-- Generator: Adobe Illustrator 24.0.1, SVG Export Plug-In . SVG Version: 6.00 Build 0)  -->
<svg version="1.1" id="Layer_1" xmlns="http://www.w3.org/2000/svg" xmlns:xlink="http://www.w3.org/1999/xlink" x="0px" y="0px"
	 viewBox="0 0 30 30" style="enable-background:new 0 0 30 30;" xml:space="preserve">
<style type="text/css">
	.st0{fill:#FFFFFF;}
	.st1{fill:none;stroke:#000000;stroke-width:2;stroke-miterlimit:10;}
</style>
<g>
	<g>
		<rect x="0.5" y="0.5" class="st0" width="29" height="29"/>
		<path d="M29,1v28H1V1H29 M30,0H0v30h30V0L30,0z"/>
	</g>
	<g>
		<circle class="st1" cx="15.01" cy="15" r="9.15"/>
		<g>
			<polygon class="st0" points="23.17,17.75 20.37,13.68 21.85,12.66 24.08,15.9 27.33,13.67 28.35,15.15 24.28,17.95 			"/>
			<path class="st0" d="M21.78,13.01l2.24,3.24l3.24-2.24L28,15.08l-3.78,2.6l-0.9-0.17l-2.6-3.78L21.78,13.01 M21.91,12.31
				l-0.41,0.28l-1.07,0.74l-0.41,0.28l0.28,0.41l2.6,3.78l0.12,0.17l0.2,0.04l0.9,0.17l0.2,0.04l0.17-0.12l3.78-2.6l0.41-0.28
				l-0.28-0.41l-0.74-1.07l-0.28-0.41l-0.41,0.28l-2.83,1.95l-1.95-2.83L21.91,12.31L21.91,12.31z"/>
		</g>
		<g>
			<polygon points="27.85,13.09 26.93,12.18 24.15,14.96 21.36,12.18 20.44,13.09 23.69,16.34 24.61,16.34 			"/>
		</g>
		<g>
			<polygon class="st0" points="5.93,14.17 2.89,16.33 1.89,14.92 5.72,12.2 6.78,12.38 9.5,16.21 8.09,17.21 			"/>
			<path class="st0" d="M5.78,12.46l0.86,0.15l2.51,3.54l-1,0.71l-2.16-3.04l-3.04,2.16l-0.71-1L5.78,12.46 M5.66,11.94l-0.17,0.12
				l-3.54,2.51l-0.41,0.29l0.29,0.41l0.71,1l0.29,0.41l0.41-0.29l2.63-1.87l1.87,2.63l0.29,0.41l0.41-0.29l1-0.71l0.41-0.29
				l-0.29-0.41l-2.51-3.54l-0.12-0.17l-0.2-0.03l-0.86-0.15L5.66,11.94L5.66,11.94z"/>
		</g>
		<g>
			<polygon points="2.37,16.81 3.24,17.67 5.88,15.04 8.51,17.67 9.38,16.81 6.31,13.74 5.44,13.74 			"/>
		</g>
	</g>
</g>
</svg>
